<?xml version="1.0" encoding="utf-8"?>
<!-- Generator: Adobe Illustrator 16.0.3, SVG Export Plug-In . SVG Version: 6.00 Build 0)  -->
<!DOCTYPE svg PUBLIC "-//W3C//DTD SVG 1.1//EN" "http://www.w3.org/Graphics/SVG/1.1/DTD/svg11.dtd">
<svg version="1.1" id="Ebene_1" xmlns="http://www.w3.org/2000/svg" xmlns:xlink="http://www.w3.org/1999/xlink" x="0px" y="0px"
	 width="260px" height="80px" viewBox="0 0 260 80" enable-background="new 0 0 260 80" xml:space="preserve">
<g id="logo">
	<rect id="logo_kasten" fill="#FC4E2A" width="80" height="80"/>
	<g id="DOKU">
		<path fill="#333333" d="M8,30.187h6.725c1.326,0,2.396,0.18,3.212,0.54s1.491,0.876,2.023,1.549
			c0.533,0.672,0.919,1.455,1.159,2.348c0.24,0.893,0.36,1.838,0.36,2.837c0,1.565-0.178,2.78-0.535,3.643
			c-0.356,0.863-0.851,1.584-1.484,2.168c-0.633,0.582-1.313,0.971-2.039,1.164c-0.992,0.266-1.892,0.4-2.698,0.4H8V30.187z
			 M12.526,33.504v8.003h1.109c0.946,0,1.619-0.105,2.018-0.314c0.399-0.21,0.713-0.576,0.939-1.099
			c0.226-0.523,0.339-1.371,0.339-2.543c0-1.552-0.253-2.614-0.759-3.187c-0.506-0.573-1.345-0.859-2.518-0.859H12.526z"/>
		<path fill="#333333" d="M23.288,37.521c0-2.392,0.667-4.253,1.999-5.586c1.332-1.333,3.188-1.999,5.565-1.999
			c2.438,0,4.317,0.654,5.636,1.964c1.319,1.309,1.978,3.142,1.978,5.5c0,1.712-0.288,3.117-0.864,4.212
			c-0.577,1.096-1.409,1.947-2.498,2.559c-1.089,0.607-2.447,0.912-4.072,0.912c-1.652,0-3.02-0.262-4.102-0.789
			c-1.083-0.525-1.96-1.359-2.633-2.498C23.624,40.659,23.288,39.233,23.288,37.521z M27.814,37.542
			c0,1.479,0.275,2.541,0.824,3.188c0.55,0.646,1.297,0.968,2.244,0.968c0.973,0,1.725-0.316,2.258-0.949
			c0.532-0.633,0.799-1.769,0.799-3.407c0-1.379-0.278-2.387-0.834-3.022c-0.556-0.636-1.311-0.955-2.263-0.955
			c-0.913,0-1.646,0.324-2.198,0.969C28.091,34.98,27.814,36.049,27.814,37.542z"/>
		<path fill="#333333" d="M40.923,30.187h4.527v5.536l4.741-5.536h6.021l-5.347,5.53l5.586,9.12h-5.574l-3.089-6.025l-2.338,2.449
			v3.576h-4.527V30.187z"/>
		<path fill="#333333" d="M67.484,30.187H72v8.728c0,0.866-0.135,1.682-0.404,2.451c-0.27,0.77-0.692,1.441-1.269,2.018
			c-0.576,0.574-1.181,0.98-1.813,1.213c-0.88,0.326-1.936,0.488-3.168,0.488c-0.713,0-1.491-0.049-2.333-0.148
			c-0.844-0.1-1.548-0.299-2.114-0.596c-0.566-0.295-1.083-0.717-1.553-1.262c-0.47-0.547-0.791-1.109-0.965-1.688
			c-0.279-0.932-0.419-1.757-0.419-2.477v-8.728h4.516v8.936c0,0.798,0.223,1.423,0.665,1.873c0.442,0.449,1.058,0.673,1.844,0.673
			c0.779,0,1.391-0.221,1.833-0.664c0.443-0.443,0.665-1.07,0.665-1.882V30.187z"/>
	</g>
	<g id="VIS">
		<path fill="#333333" d="M8,47.211h8.007l5.579,17.84l5.508-17.84h7.774L25.664,72h-8.302L8,47.211z"/>
		<path fill="#333333" d="M37.675,47.211h7.676V72h-7.676V47.211z"/>
		<path fill="#333333" d="M49.511,63.799l7.287-0.457c0.159,1.184,0.479,2.086,0.965,2.705c0.788,1.004,1.916,1.506,3.382,1.506
			c1.093,0,1.936-0.258,2.527-0.77S64.56,65.676,64.56,65c0-0.645-0.281-1.219-0.845-1.725c-0.564-0.508-1.872-0.988-3.924-1.438
			c-3.359-0.756-5.755-1.76-7.187-3.01c-1.442-1.252-2.164-2.848-2.164-4.785c0-1.275,0.369-2.477,1.107-3.609
			c0.738-1.135,1.85-2.025,3.332-2.674c1.481-0.646,3.514-0.971,6.095-0.971c3.168,0,5.583,0.588,7.246,1.768
			c1.662,1.176,2.651,3.051,2.967,5.621l-7.22,0.424c-0.191-1.117-0.595-1.93-1.209-2.436c-0.614-0.508-1.463-0.762-2.545-0.762
			c-0.891,0-1.561,0.189-2.012,0.566c-0.451,0.379-0.677,0.838-0.677,1.379c0,0.395,0.187,0.75,0.559,1.064
			c0.36,0.328,1.217,0.631,2.57,0.914c3.347,0.721,5.746,1.451,7.194,2.189s2.503,1.654,3.161,2.748
			C71.67,61.359,72,62.582,72,63.936c0,1.588-0.439,3.053-1.318,4.395s-2.108,2.359-3.687,3.053s-3.567,1.039-5.968,1.039
			c-4.217,0-7.136-0.811-8.759-2.434C50.644,68.363,49.725,66.301,49.511,63.799z"/>
	</g>
</g>
<text transform="matrix(1 0 0 1 94.2041 44.584)" fill="#F6F6F6" font-family="'Roboto-Light'" font-size="36">API</text>
<text transform="matrix(1 0 0 1 123.5254 61.1035)" fill="#F6F6F6" font-family="'Roboto-Regular'" font-size="18">Documentation</text>
</svg>
